<?xml version="1.0" encoding="iso-8859-1"?>
<!-- Generator: Adobe Illustrator 19.0.0, SVG Export Plug-In . SVG Version: 6.00 Build 0)  -->
<svg version="1.1" id="Capa_1" xmlns="http://www.w3.org/2000/svg" xmlns:xlink="http://www.w3.org/1999/xlink" x="0px" y="0px"
	 viewBox="0 0 512 512" style="enable-background:new 0 0 512 512;" xml:space="preserve">
<g>
	<g>
		<path d="M373.333,277.333C308.629,277.333,256,329.963,256,394.667S308.629,512,373.333,512s117.333-52.629,117.333-117.333
			S438.037,277.333,373.333,277.333z M373.333,490.667c-52.928,0-96-43.072-96-96s43.072-96,96-96c52.928,0,96,43.072,96,96
			S426.261,490.667,373.333,490.667z"/>
	</g>
</g>
<g>
	<g>
		<path d="M444.843,344.469c-4.16-4.16-10.923-4.16-15.083,0l-77.781,77.781l-35.115-35.115c-4.16-4.16-10.923-4.16-15.083,0
			c-4.16,4.16-4.16,10.923,0,15.083l42.667,42.667c2.091,2.069,4.821,3.115,7.552,3.115c2.731,0,5.461-1.045,7.509-3.115
			l85.333-85.333C449.003,355.392,449.003,348.629,444.843,344.469z"/>
	</g>
</g>
<g>
	<g>
		<path d="M394.667,0H53.333c-17.643,0-32,14.357-32,32v405.333c0,17.643,14.357,32,32,32H224c5.888,0,10.667-4.779,10.667-10.667
			S229.888,448,224,448H53.333c-5.888,0-10.667-4.779-10.667-10.667V32c0-5.888,4.779-10.667,10.667-10.667h32v23.296
			C72.939,49.045,64,60.779,64,74.667c0,17.643,14.357,32,32,32s32-14.357,32-32c0-13.888-8.939-25.621-21.333-30.037V21.333h64
			v23.296c-12.395,4.416-21.333,16.149-21.333,30.037c0,17.643,14.357,32,32,32c17.643,0,32-14.357,32-32
			c0-13.888-8.939-25.621-21.333-30.037V21.333h64v23.296c-12.395,4.416-21.333,16.149-21.333,30.037c0,17.643,14.357,32,32,32
			c17.643,0,32-14.357,32-32c0-13.888-8.939-25.621-21.333-30.037V21.333h64v23.296C328.939,49.045,320,60.779,320,74.667
			c0,17.643,14.357,32,32,32c17.643,0,32-14.357,32-32c0-13.888-8.939-25.621-21.333-30.037V21.333h32
			c5.888,0,10.667,4.779,10.667,10.667v213.333c0,5.888,4.779,10.667,10.667,10.667c5.888,0,10.667-4.779,10.667-10.667V32
			C426.667,14.357,412.309,0,394.667,0z M96,85.333c-5.888,0-10.667-4.779-10.667-10.667S90.112,64,96,64
			s10.667,4.779,10.667,10.667S101.888,85.333,96,85.333z M181.333,85.333c-5.888,0-10.667-4.779-10.667-10.667
			S175.445,64,181.333,64S192,68.779,192,74.667S187.221,85.333,181.333,85.333z M266.667,85.333
			c-5.888,0-10.667-4.779-10.667-10.667S260.779,64,266.667,64s10.667,4.779,10.667,10.667S272.555,85.333,266.667,85.333z
			 M352,85.333c-5.888,0-10.667-4.779-10.667-10.667S346.112,64,352,64c5.888,0,10.667,4.779,10.667,10.667
			S357.888,85.333,352,85.333z"/>
	</g>
</g>
<g>
</g>
<g>
</g>
<g>
</g>
<g>
</g>
<g>
</g>
<g>
</g>
<g>
</g>
<g>
</g>
<g>
</g>
<g>
</g>
<g>
</g>
<g>
</g>
<g>
</g>
<g>
</g>
<g>
</g>
</svg>
