<?xml version="1.0" encoding="iso-8859-1"?>
<!-- Generator: Adobe Illustrator 19.0.0, SVG Export Plug-In . SVG Version: 6.00 Build 0)  -->
<svg version="1.1" id="Capa_1" xmlns="http://www.w3.org/2000/svg" xmlns:xlink="http://www.w3.org/1999/xlink" x="0px" y="0px"
	 viewBox="0 0 509.081 509.081" style="enable-background:new 0 0 509.081 509.081;" xml:space="preserve">
<g>
	<g>
		<path d="M482.231,356.416c-0.96-2.795-3.051-5.077-5.76-6.293c-2.688-1.195-5.781-1.237-8.512-0.085
			c-5.099,2.176-10.709,0.405-13.291-4.117c-2.645-4.565-1.323-10.283,3.072-13.611c2.368-1.792,3.883-4.501,4.181-7.445
			c0.32-2.965-0.619-5.909-2.603-8.128c-17.387-19.797-39.808-32.875-64.811-37.845c-2.987-0.64-6.016,0.107-8.427,1.877
			c-2.411,1.771-3.968,4.501-4.267,7.488c-0.555,5.525-4.992,9.664-10.283,9.664c-5.312,0-9.749-4.16-10.304-9.664
			c-0.277-2.987-1.856-5.717-4.267-7.488c-2.432-1.771-5.461-2.475-8.427-1.877c-25.003,4.971-47.424,18.048-64.811,37.845
			c-1.963,2.24-2.901,5.184-2.581,8.128c0.277,2.965,1.813,5.653,4.181,7.445c4.416,3.328,5.717,9.045,3.093,13.589
			c-2.624,4.565-8.235,6.336-13.312,4.139c-2.731-1.173-5.824-1.131-8.512,0.085c-2.709,1.195-4.8,3.477-5.76,6.293
			c-4.459,13.141-6.635,25.408-6.635,37.461s2.176,24.32,6.635,37.461c0.96,2.795,3.051,5.077,5.76,6.293
			c2.688,1.216,5.781,1.237,8.512,0.085c5.035-2.155,10.688-0.427,13.291,4.117c2.645,4.565,1.323,10.283-3.072,13.611
			c-2.368,1.792-3.883,4.501-4.181,7.445c-0.32,2.944,0.619,5.909,2.581,8.128c17.387,19.797,39.808,32.896,64.811,37.845
			c2.923,0.619,6.016-0.107,8.427-1.877c2.411-1.792,3.968-4.501,4.267-7.488c0.555-5.504,4.992-9.643,10.304-9.643
			c5.291,0,9.728,4.139,10.283,9.643c0.277,2.987,1.856,5.696,4.267,7.488c1.856,1.365,4.075,2.091,6.336,2.091
			c0.683,0,1.408-0.064,2.091-0.192c24.981-4.949,47.403-18.048,64.811-37.845c1.984-2.24,2.923-5.163,2.603-8.128
			c-0.277-2.965-1.813-5.653-4.181-7.445c-4.416-3.328-5.717-9.045-3.072-13.611c2.603-4.523,8.213-6.315,13.291-4.139
			c2.731,1.152,5.824,1.131,8.512-0.085c2.709-1.195,4.8-3.477,5.76-6.293c4.459-13.141,6.635-25.408,6.635-37.461
			S486.69,369.557,482.231,356.416z M464.695,415.531c-11.285-0.277-22.571,5.376-28.523,15.68
			c-5.931,10.261-5.355,22.72,0.661,32.448c-10.837,10.261-23.488,17.728-37.291,21.973c-5.333-10.261-15.915-17.109-28.011-17.109
			c-12.117,0-22.72,6.848-28.032,17.088c-13.803-4.245-26.453-11.712-37.269-21.952c6.016-9.728,6.571-22.208,0.64-32.491
			c-5.952-10.304-17.067-16.021-28.501-15.659c-1.899-7.509-2.837-14.677-2.837-21.653c0-6.976,0.939-14.123,2.837-21.653
			c11.52,0.384,22.549-5.376,28.523-15.68c5.931-10.261,5.355-22.741-0.661-32.469c10.816-10.24,23.467-17.685,37.269-21.952
			c5.333,10.261,15.936,17.109,28.032,17.109c12.096,0,22.677-6.848,28.011-17.109c13.803,4.245,26.453,11.712,37.291,21.973
			c-6.016,9.728-6.571,22.187-0.661,32.469c5.952,10.304,17.152,15.979,28.523,15.68c1.899,7.531,2.837,14.677,2.837,21.653
			C467.533,400.853,466.594,408,464.695,415.531z"/>
	</g>
</g>
<g>
	<g>
		<path d="M371.533,340.523c-29.419,0-53.333,23.936-53.333,53.333s23.915,53.333,53.333,53.333s53.333-23.936,53.333-53.333
			S400.951,340.523,371.533,340.523z M371.533,425.856c-17.643,0-32-14.357-32-32s14.357-32,32-32s32,14.357,32,32
			S389.175,425.856,371.533,425.856z"/>
	</g>
</g>
<g>
	<g>
		<path d="M393.549,0H52.215c-17.643,0-32,14.357-32,32v405.333c0,17.643,14.357,32,32,32h170.667
			c5.888,0,10.667-4.779,10.667-10.667S228.77,448,222.882,448H52.215c-5.867,0-10.667-4.779-10.667-10.667V32
			c0-5.888,4.8-10.667,10.667-10.667h32v23.296c-12.395,4.416-21.333,16.149-21.333,30.037c0,17.643,14.357,32,32,32
			c17.643,0,32-14.357,32-32c0-13.888-8.939-25.621-21.333-30.037V21.333h64v23.296c-12.395,4.416-21.333,16.149-21.333,30.037
			c0,17.643,14.357,32,32,32c17.643,0,32-14.357,32-32c0-13.888-8.939-25.621-21.333-30.037V21.333h64v23.296
			c-12.395,4.416-21.333,16.149-21.333,30.037c0,17.643,14.357,32,32,32s32-14.357,32-32c0-13.888-8.939-25.621-21.333-30.037
			V21.333h64v23.296c-12.395,4.416-21.333,16.149-21.333,30.037c0,17.643,14.357,32,32,32c17.643,0,32-14.357,32-32
			c0-13.888-8.939-25.621-21.333-30.037V21.333h32c5.867,0,10.667,4.779,10.667,10.667v213.333c0,5.888,4.779,10.667,10.667,10.667
			c5.888,0,10.667-4.779,10.667-10.667V32C425.549,14.357,411.191,0,393.549,0z M94.882,85.333c-5.867,0-10.667-4.779-10.667-10.667
			S89.015,64,94.882,64c5.867,0,10.667,4.779,10.667,10.667S100.749,85.333,94.882,85.333z M180.215,85.333
			c-5.867,0-10.667-4.779-10.667-10.667S174.349,64,180.215,64c5.867,0,10.667,4.779,10.667,10.667S186.082,85.333,180.215,85.333z
			 M265.549,85.333c-5.867,0-10.667-4.779-10.667-10.667S259.682,64,265.549,64s10.667,4.779,10.667,10.667
			S271.415,85.333,265.549,85.333z M361.549,74.667c0,5.888-4.8,10.667-10.667,10.667s-10.667-4.779-10.667-10.667
			S345.015,64,350.882,64S361.549,68.779,361.549,74.667z"/>
	</g>
</g>
<g>
</g>
<g>
</g>
<g>
</g>
<g>
</g>
<g>
</g>
<g>
</g>
<g>
</g>
<g>
</g>
<g>
</g>
<g>
</g>
<g>
</g>
<g>
</g>
<g>
</g>
<g>
</g>
<g>
</g>
</svg>
