<?xml version="1.0" encoding="iso-8859-1"?>
<!-- Generator: Adobe Illustrator 19.0.0, SVG Export Plug-In . SVG Version: 6.00 Build 0)  -->
<svg version="1.1" id="Capa_1" xmlns="http://www.w3.org/2000/svg" xmlns:xlink="http://www.w3.org/1999/xlink" x="0px" y="0px"
	 viewBox="0 0 512 512" style="enable-background:new 0 0 512 512;" xml:space="preserve">
<g>
	<g>
		<path d="M487.528,323.115l-42.667-42.667c-4.16-4.16-10.923-4.16-15.083,0L259.112,451.115c-1.984,2.005-3.115,4.715-3.115,7.552
			v42.667c0,5.888,4.779,10.667,10.667,10.667h42.667c2.816,0,5.525-1.131,7.531-3.136l127.936-127.936
			c0.021-0.021,0.043-0.021,0.064-0.043c0.021-0.021,0.021-0.043,0.043-0.064l42.624-42.624
			C491.688,334.037,491.688,327.275,487.528,323.115z M304.915,490.667h-27.584v-27.584l117.333-117.333l27.584,27.584
			L304.915,490.667z M437.309,358.251l-27.584-27.584l27.605-27.605l27.584,27.584L437.309,358.251z"/>
	</g>
</g>
<g>
	<g>
		<path d="M394.685,0H53.352c-17.643,0-32,14.357-32,32v405.333c0,17.643,14.357,32,32,32h170.667
			c5.888,0,10.667-4.779,10.667-10.667S229.907,448,224.019,448H53.352c-5.888,0-10.667-4.779-10.667-10.667V32
			c0-5.888,4.779-10.667,10.667-10.667h32v23.296c-12.395,4.416-21.333,16.149-21.333,30.037c0,17.643,14.357,32,32,32
			c17.643,0,32-14.357,32-32c0-13.888-8.939-25.621-21.333-30.037V21.333h64v23.296c-12.395,4.416-21.333,16.149-21.333,30.037
			c0,17.643,14.357,32,32,32c17.643,0,32-14.357,32-32c0-13.888-8.939-25.621-21.333-30.037V21.333h64v23.296
			c-12.395,4.416-21.333,16.149-21.333,30.037c0,17.643,14.357,32,32,32c17.643,0,32-14.357,32-32
			c0-13.888-8.939-25.621-21.333-30.037V21.333h64v23.296c-12.395,4.416-21.333,16.149-21.333,30.037c0,17.643,14.357,32,32,32
			c17.643,0,32-14.357,32-32c0-13.888-8.939-25.621-21.333-30.037V21.333h32c5.888,0,10.667,4.779,10.667,10.667v213.333
			c0,5.888,4.779,10.667,10.667,10.667c5.888,0,10.667-4.779,10.667-10.667V32C426.685,14.357,412.328,0,394.685,0z M96.019,85.333
			c-5.888,0-10.667-4.779-10.667-10.667S90.131,64,96.019,64s10.667,4.779,10.667,10.667S101.907,85.333,96.019,85.333z
			 M192.019,74.667c0,5.888-4.779,10.667-10.667,10.667s-10.667-4.779-10.667-10.667S175.464,64,181.352,64
			S192.019,68.779,192.019,74.667z M266.685,85.333c-5.888,0-10.667-4.779-10.667-10.667S260.797,64,266.685,64
			s10.667,4.779,10.667,10.667S272.573,85.333,266.685,85.333z M352.019,85.333c-5.888,0-10.667-4.779-10.667-10.667
			S346.131,64,352.019,64c5.888,0,10.667,4.779,10.667,10.667S357.907,85.333,352.019,85.333z"/>
	</g>
</g>
<g>
</g>
<g>
</g>
<g>
</g>
<g>
</g>
<g>
</g>
<g>
</g>
<g>
</g>
<g>
</g>
<g>
</g>
<g>
</g>
<g>
</g>
<g>
</g>
<g>
</g>
<g>
</g>
<g>
</g>
</svg>
