<?xml version="1.0" encoding="iso-8859-1"?>
<!-- Generator: Adobe Illustrator 19.0.0, SVG Export Plug-In . SVG Version: 6.00 Build 0)  -->
<svg version="1.1" id="Capa_1" xmlns="http://www.w3.org/2000/svg" xmlns:xlink="http://www.w3.org/1999/xlink" x="0px" y="0px"
	 viewBox="0 0 512 512" style="enable-background:new 0 0 512 512;" xml:space="preserve">
<g>
	<g>
		<path d="M373.333,277.333C308.629,277.333,256,329.963,256,394.667S308.629,512,373.333,512
			c64.683,0,117.333-52.629,117.333-117.333S438.016,277.333,373.333,277.333z M373.333,490.667c-52.928,0-96-43.072-96-96
			s43.072-96,96-96c52.928,0,96,43.072,96,96S426.24,490.667,373.333,490.667z"/>
	</g>
</g>
<g>
	<g>
		<path d="M373.333,320c-5.888,0-10.667,4.779-10.667,10.667V416c0,5.888,4.779,10.667,10.667,10.667
			c5.888,0,10.667-4.779,10.667-10.667v-85.333C384,324.779,379.221,320,373.333,320z"/>
	</g>
</g>
<g>
	<g>
		<path d="M380.8,451.2c-3.84-4.053-11.072-4.053-15.125,0c-1.941,1.92-3.008,4.693-3.008,7.467s1.067,5.547,2.987,7.467
			c2.133,2.133,4.907,3.2,7.68,3.2c2.773,0,5.547-1.067,7.467-3.2c2.133-1.92,3.2-4.693,3.2-7.467S382.933,453.12,380.8,451.2z"/>
	</g>
</g>
<g>
	<g>
		<path d="M394.667,0H53.333c-17.621,0-32,14.357-32,32v405.333c0,17.643,14.379,32,32,32H224c5.888,0,10.667-4.779,10.667-10.667
			S229.888,448,224,448H53.333c-5.888,0-10.667-4.779-10.667-10.667V32c0-5.888,4.779-10.667,10.667-10.667h32v23.296
			C72.96,49.045,64,60.779,64,74.667c0,17.643,14.379,32,32,32c17.664,0,32-14.357,32-32c0-13.888-8.939-25.621-21.333-30.037
			V21.333h64v23.296c-12.373,4.416-21.333,16.149-21.333,30.037c0,17.643,14.379,32,32,32c17.664,0,32-14.357,32-32
			c0-13.888-8.939-25.621-21.333-30.037V21.333h64v23.296c-12.373,4.416-21.333,16.149-21.333,30.037c0,17.643,14.379,32,32,32
			c17.664,0,32-14.357,32-32c0-13.888-8.939-25.621-21.333-30.037V21.333h64v23.296C328.96,49.045,320,60.779,320,74.667
			c0,17.643,14.379,32,32,32c17.664,0,32-14.357,32-32c0-13.888-8.939-25.621-21.333-30.037V21.333h32
			c5.888,0,10.667,4.779,10.667,10.667v213.333c0,5.888,4.779,10.667,10.667,10.667c5.888,0,10.667-4.779,10.667-10.667V32
			C426.667,14.357,412.331,0,394.667,0z M96,85.333c-5.888,0-10.667-4.779-10.667-10.667S90.112,64,96,64
			s10.667,4.779,10.667,10.667S101.888,85.333,96,85.333z M181.333,85.333c-5.888,0-10.667-4.779-10.667-10.667
			S175.445,64,181.333,64S192,68.779,192,74.667S187.221,85.333,181.333,85.333z M266.667,85.333
			c-5.888,0-10.667-4.779-10.667-10.667S260.779,64,266.667,64s10.667,4.779,10.667,10.667S272.555,85.333,266.667,85.333z
			 M352,85.333c-5.888,0-10.667-4.779-10.667-10.667S346.112,64,352,64c5.888,0,10.667,4.779,10.667,10.667
			S357.888,85.333,352,85.333z"/>
	</g>
</g>
<g>
</g>
<g>
</g>
<g>
</g>
<g>
</g>
<g>
</g>
<g>
</g>
<g>
</g>
<g>
</g>
<g>
</g>
<g>
</g>
<g>
</g>
<g>
</g>
<g>
</g>
<g>
</g>
<g>
</g>
</svg>
