<?xml version="1.0" encoding="iso-8859-1"?>
<!-- Generator: Adobe Illustrator 19.0.0, SVG Export Plug-In . SVG Version: 6.00 Build 0)  -->
<svg version="1.1" id="Capa_1" xmlns="http://www.w3.org/2000/svg" xmlns:xlink="http://www.w3.org/1999/xlink" x="0px" y="0px"
	 viewBox="0 0 512 512" style="enable-background:new 0 0 512 512;" xml:space="preserve">
<g>
	<g>
		<path d="M426.667,0H85.333c-17.643,0-32,14.357-32,32v448c0,17.643,14.357,32,32,32h341.333c17.643,0,32-14.357,32-32V32
			C458.667,14.357,444.309,0,426.667,0z M384,64c5.867,0,10.667,4.779,10.667,10.667s-4.8,10.667-10.667,10.667
			c-5.867,0-10.667-4.779-10.667-10.667S378.133,64,384,64z M298.667,64c5.867,0,10.667,4.779,10.667,10.667
			s-4.8,10.667-10.667,10.667C292.8,85.333,288,80.555,288,74.667S292.8,64,298.667,64z M213.333,64C219.2,64,224,68.779,224,74.667
			s-4.8,10.667-10.667,10.667c-5.867,0-10.667-4.779-10.667-10.667S207.467,64,213.333,64z M128,64
			c5.867,0,10.667,4.779,10.667,10.667s-4.8,10.667-10.667,10.667c-5.867,0-10.667-4.779-10.667-10.667S122.133,64,128,64z
			 M437.333,480c0,5.888-4.8,10.667-10.667,10.667H85.333c-5.867,0-10.667-4.779-10.667-10.667V32c0-5.888,4.8-10.667,10.667-10.667
			h32v23.296C104.939,49.045,96,60.779,96,74.667c0,17.643,14.357,32,32,32c17.643,0,32-14.357,32-32
			c0-13.888-8.939-25.621-21.333-30.037V21.333h64v23.296c-12.395,4.416-21.333,16.149-21.333,30.037c0,17.643,14.357,32,32,32
			c17.643,0,32-14.357,32-32c0-13.888-8.939-25.621-21.333-30.037V21.333h64v23.296c-12.395,4.416-21.333,16.149-21.333,30.037
			c0,17.643,14.357,32,32,32c17.643,0,32-14.357,32-32c0-13.888-8.939-25.621-21.333-30.037V21.333h64v23.296
			C360.939,49.045,352,60.779,352,74.667c0,17.643,14.357,32,32,32c17.643,0,32-14.357,32-32c0-13.888-8.939-25.621-21.333-30.037
			V21.333h32c5.867,0,10.667,4.779,10.667,10.667V480z"/>
	</g>
</g>
<g>
	<g>
		<path d="M384,213.333H128c-5.888,0-10.667,4.779-10.667,10.667s4.779,10.667,10.667,10.667h256
			c5.888,0,10.667-4.779,10.667-10.667S389.888,213.333,384,213.333z"/>
	</g>
</g>
<g>
	<g>
		<path d="M384,298.667H128c-5.888,0-10.667,4.779-10.667,10.667S122.112,320,128,320h256c5.888,0,10.667-4.779,10.667-10.667
			S389.888,298.667,384,298.667z"/>
	</g>
</g>
<g>
	<g>
		<path d="M320,384H128c-5.888,0-10.667,4.779-10.667,10.667s4.779,10.667,10.667,10.667h192c5.888,0,10.667-4.779,10.667-10.667
			S325.888,384,320,384z"/>
	</g>
</g>
<g>
</g>
<g>
</g>
<g>
</g>
<g>
</g>
<g>
</g>
<g>
</g>
<g>
</g>
<g>
</g>
<g>
</g>
<g>
</g>
<g>
</g>
<g>
</g>
<g>
</g>
<g>
</g>
<g>
</g>
</svg>
