<?xml version="1.0" encoding="iso-8859-1"?>
<!-- Generator: Adobe Illustrator 19.0.0, SVG Export Plug-In . SVG Version: 6.00 Build 0)  -->
<svg version="1.1" id="Capa_1" xmlns="http://www.w3.org/2000/svg" xmlns:xlink="http://www.w3.org/1999/xlink" x="0px" y="0px"
	 viewBox="0 0 512 512" style="enable-background:new 0 0 512 512;" xml:space="preserve">
<g>
	<g>
		<path d="M448,277.333h-74.667v-10.667c0-5.888-4.779-10.667-10.667-10.667S352,260.779,352,266.667v10.667h-74.667
			c-17.643,0-32,14.357-32,32v21.333c0,5.888,4.779,10.667,10.667,10.667h12.48l30.379,161.963
			c0.939,5.056,5.355,8.704,10.475,8.704H416c5.12,0,9.536-3.648,10.475-8.704l30.379-161.963h12.48
			c5.888,0,10.667-4.779,10.667-10.667v-21.333C480,291.691,465.643,277.333,448,277.333z M407.147,490.667h-88.96l-28.011-149.333
			h144.981L407.147,490.667z M458.667,320h-192v-10.667c0-5.888,4.8-10.667,10.667-10.667H448c5.867,0,10.667,4.779,10.667,10.667
			V320z"/>
	</g>
</g>
<g>
	<g>
		<path d="M351.936,457.344l-10.667-85.333c-0.747-5.867-6.251-9.984-11.925-9.259c-5.845,0.725-9.984,6.059-9.259,11.904
			l10.667,85.333c0.661,5.397,5.269,9.344,10.56,9.344c0.469,0,0.896-0.021,1.365-0.085
			C348.523,468.523,352.661,463.189,351.936,457.344z"/>
	</g>
</g>
<g>
	<g>
		<path d="M396.011,362.752c-5.739-0.725-11.221,3.392-11.925,9.259l-10.667,85.333c-0.725,5.845,3.435,11.179,9.259,11.904
			c0.448,0.064,0.896,0.085,1.344,0.085c5.291,0,9.899-3.947,10.581-9.344l10.667-85.333
			C405.995,368.811,401.835,363.477,396.011,362.752z"/>
	</g>
</g>
<g>
	<g>
		<path d="M405.333,0H64C46.357,0,32,14.357,32,32v405.333c0,17.643,14.357,32,32,32h192c5.888,0,10.667-4.779,10.667-10.667
			S261.888,448,256,448H64c-5.867,0-10.667-4.779-10.667-10.667V32c0-5.888,4.8-10.667,10.667-10.667h32v23.296
			c-12.395,4.416-21.333,16.149-21.333,30.037c0,17.643,14.357,32,32,32c17.643,0,32-14.357,32-32
			c0-13.888-8.939-25.621-21.333-30.037V21.333h64v23.296C168.939,49.045,160,60.779,160,74.667c0,17.643,14.357,32,32,32
			s32-14.357,32-32c0-13.888-8.939-25.621-21.333-30.037V21.333h64v23.296c-12.395,4.416-21.333,16.149-21.333,30.037
			c0,17.643,14.357,32,32,32c17.643,0,32-14.357,32-32c0-13.888-8.939-25.621-21.333-30.037V21.333h64v23.296
			c-12.395,4.416-21.333,16.149-21.333,30.037c0,17.643,14.357,32,32,32s32-14.357,32-32c0-13.888-8.939-25.621-21.333-30.037
			V21.333h32C411.2,21.333,416,26.112,416,32v213.333c0,5.888,4.779,10.667,10.667,10.667s10.667-4.779,10.667-10.667V32
			C437.333,14.357,422.976,0,405.333,0z M106.667,85.333C100.8,85.333,96,80.555,96,74.667S100.8,64,106.667,64
			c5.867,0,10.667,4.779,10.667,10.667S112.533,85.333,106.667,85.333z M192,85.333c-5.867,0-10.667-4.779-10.667-10.667
			S186.133,64,192,64s10.667,4.779,10.667,10.667S197.867,85.333,192,85.333z M277.333,85.333c-5.867,0-10.667-4.779-10.667-10.667
			S271.467,64,277.333,64C283.2,64,288,68.779,288,74.667S283.2,85.333,277.333,85.333z M362.667,85.333
			C356.8,85.333,352,80.555,352,74.667S356.8,64,362.667,64s10.667,4.779,10.667,10.667S368.533,85.333,362.667,85.333z"/>
	</g>
</g>
<g>
</g>
<g>
</g>
<g>
</g>
<g>
</g>
<g>
</g>
<g>
</g>
<g>
</g>
<g>
</g>
<g>
</g>
<g>
</g>
<g>
</g>
<g>
</g>
<g>
</g>
<g>
</g>
<g>
</g>
</svg>
