<?xml version="1.0" encoding="iso-8859-1"?>
<!-- Generator: Adobe Illustrator 19.0.0, SVG Export Plug-In . SVG Version: 6.00 Build 0)  -->
<svg version="1.1" id="Capa_1" xmlns="http://www.w3.org/2000/svg" xmlns:xlink="http://www.w3.org/1999/xlink" x="0px" y="0px"
	 viewBox="0 0 512 512" style="enable-background:new 0 0 512 512;" xml:space="preserve">
<g>
	<g>
		<path d="M487.517,493.803l-57.749-57.749c11.243-14.443,18.219-32.384,18.219-52.053c0-47.061-38.272-85.333-85.333-85.333
			S277.32,336.939,277.32,384c0,47.061,38.272,85.333,85.333,85.333c19.669,0,37.589-6.955,52.032-18.197l57.749,57.749
			c2.091,2.069,4.821,3.115,7.552,3.115s5.461-1.045,7.531-3.115C491.677,504.725,491.677,497.963,487.517,493.803z M362.653,448
			c-35.285,0-64-28.715-64-64c0-35.285,28.715-64,64-64c35.285,0,64,28.715,64,64C426.653,419.285,397.939,448,362.653,448z"/>
	</g>
</g>
<g>
	<g>
		<path d="M394.696,0H53.363c-17.643,0-32,14.357-32,32v405.333c0,17.643,14.357,32,32,32h213.333
			c5.888,0,10.667-4.779,10.667-10.667S272.584,448,266.696,448H53.363c-5.867,0-10.667-4.779-10.667-10.667V32
			c0-5.888,4.8-10.667,10.667-10.667h32v23.296c-12.395,4.416-21.333,16.149-21.333,30.037c0,17.643,14.357,32,32,32
			c17.643,0,32-14.357,32-32c0-13.888-8.939-25.621-21.333-30.037V21.333h64v23.296c-12.395,4.416-21.333,16.149-21.333,30.037
			c0,17.643,14.357,32,32,32c17.643,0,32-14.357,32-32c0-13.888-8.939-25.621-21.333-30.037V21.333h64v23.296
			c-12.395,4.416-21.333,16.149-21.333,30.037c0,17.643,14.357,32,32,32c17.643,0,32-14.357,32-32
			c0-13.888-8.939-25.621-21.333-30.037V21.333h64v23.296c-12.395,4.416-21.333,16.149-21.333,30.037c0,17.643,14.357,32,32,32
			c17.643,0,32-14.357,32-32c0-13.888-8.939-25.621-21.333-30.037V21.333h32c5.867,0,10.667,4.779,10.667,10.667v234.667
			c0,5.888,4.779,10.667,10.667,10.667c5.888,0,10.667-4.779,10.667-10.667V32C426.696,14.357,412.339,0,394.696,0z M96.029,85.333
			c-5.867,0-10.667-4.779-10.667-10.667S90.163,64,96.029,64c5.867,0,10.667,4.779,10.667,10.667S101.896,85.333,96.029,85.333z
			 M181.363,85.333c-5.867,0-10.667-4.779-10.667-10.667S175.496,64,181.363,64s10.667,4.779,10.667,10.667
			S187.229,85.333,181.363,85.333z M266.696,85.333c-5.867,0-10.667-4.779-10.667-10.667S260.829,64,266.696,64
			c5.867,0,10.667,4.779,10.667,10.667S272.563,85.333,266.696,85.333z M352.029,85.333c-5.867,0-10.667-4.779-10.667-10.667
			S346.163,64,352.029,64c5.867,0,10.667,4.779,10.667,10.667S357.896,85.333,352.029,85.333z"/>
	</g>
</g>
<g>
</g>
<g>
</g>
<g>
</g>
<g>
</g>
<g>
</g>
<g>
</g>
<g>
</g>
<g>
</g>
<g>
</g>
<g>
</g>
<g>
</g>
<g>
</g>
<g>
</g>
<g>
</g>
<g>
</g>
</svg>
